# xmcd
#
# Track frame offsets:
#	150
#	14704
#	28200
#	40802
#	50391
#	60751
#	80062
#	93354
#	108860
#	120513
#	138779
#	150000
#
# Disc length: 2232 seconds
# Revision: 0
# Processed by: cddbd v1.5.2PL0 Copyright (c) Steve Scherf et al.
# Submitted via: dBpowerAMP V12.0
#
DISCID=8708b60c
DTITLE=Various Artist - A Motown Legend
DYEAR=2008
DGENRE=Soul
TTITLE0=Marvin Gaye - I Heard It Through The Grapevine
TTITLE1=Marvin Gaye - How Sweet It Is (To Be Loved By You)
TTITLE2=Marvin Gaye - Can I Get A Witness
TTITLE3=Marvin Gaye - Pride and Joy
TTITLE4=Marvin Gaye and Tammi Terrell - Ain't Nothing Like The Real Thing
TTITLE5=Marvin Gaye - Distant Lover
TTITLE6=Marvin Gaye and Kim Weston - It Takes Two
TTITLE7=Marvin Gaye - Yesterday
TTITLE8=Marvin Gaye - Mercy Mercy Me (The Ecology)
TTITLE9=Marvin Gaye - Let's Get It On
TTITLE10=Marvin Gaye and Tammi Terrell - Ain't No Mountain High Enough
TTITLE11=Marvin Gaye - What's Going On
EXTD=
EXTT0=
EXTT1=
EXTT2=
EXTT3=
EXTT4=
EXTT5=
EXTT6=
EXTT7=
EXTT8=
EXTT9=
EXTT10=
EXTT11=
PLAYORDER=
